<svg width="126" height="56" viewBox="0 0 126 56" fill="none" xmlns="http://www.w3.org/2000/svg">
<mask id="path-1-inside-1_468_17965" fill="white">
<path fill-rule="evenodd" clip-rule="evenodd" d="M0 0.000488281H105V12.4932H98.6523C97.3895 10.4569 95.1339 9.10075 92.5616 9.10075C88.6064 9.10075 85.4001 12.3071 85.4001 16.2623C85.4001 20.2175 88.6064 23.4238 92.5616 23.4238C95.2894 23.4238 97.661 21.8988 98.8702 19.6548H105V35.9159H106.757C108.484 32.71 111.872 30.5312 115.769 30.5312C121.42 30.5312 126 35.1116 126 40.7619C126 46.4122 121.42 50.9927 115.769 50.9927C112.095 50.9927 108.873 49.0555 107.069 46.1467H105V56.0005H0V0.000488281Z"/>
</mask>
<path fill-rule="evenodd" clip-rule="evenodd" d="M0 0.000488281H105V12.4932H98.6523C97.3895 10.4569 95.1339 9.10075 92.5616 9.10075C88.6064 9.10075 85.4001 12.3071 85.4001 16.2623C85.4001 20.2175 88.6064 23.4238 92.5616 23.4238C95.2894 23.4238 97.661 21.8988 98.8702 19.6548H105V35.9159H106.757C108.484 32.71 111.872 30.5312 115.769 30.5312C121.42 30.5312 126 35.1116 126 40.7619C126 46.4122 121.42 50.9927 115.769 50.9927C112.095 50.9927 108.873 49.0555 107.069 46.1467H105V56.0005H0V0.000488281Z" fill="white"/>
<path d="M105 0.000488281H108V-2.99951H105V0.000488281ZM0 0.000488281V-2.99951H-3V0.000488281H0ZM105 12.4932V15.4932H108V12.4932H105ZM98.6523 12.4932L96.1027 14.0743L96.9827 15.4932H98.6523V12.4932ZM98.8702 19.6548V16.6548H97.079L96.2293 18.2316L98.8702 19.6548ZM105 19.6548H108V16.6548H105V19.6548ZM105 35.9159H102V38.9159H105V35.9159ZM106.757 35.9159V38.9159H108.548L109.398 37.339L106.757 35.9159ZM107.069 46.1467L109.618 44.5655L108.738 43.1467H107.069V46.1467ZM105 46.1467V43.1467H102V46.1467H105ZM105 56.0005V59.0005H108V56.0005H105ZM0 56.0005H-3V59.0005H0V56.0005ZM105 -2.99951H0V3.00049H105V-2.99951ZM108 12.4932V0.000488281H102V12.4932H108ZM98.6523 15.4932H105V9.49325H98.6523V15.4932ZM92.5616 12.1008C94.053 12.1008 95.3641 12.8832 96.1027 14.0743L101.202 10.9122C99.4149 8.03061 96.2148 6.10075 92.5616 6.10075V12.1008ZM88.4001 16.2623C88.4001 13.9639 90.2633 12.1008 92.5616 12.1008V6.10075C86.9496 6.10075 82.4001 10.6502 82.4001 16.2623H88.4001ZM92.5616 20.4238C90.2633 20.4238 88.4001 18.5606 88.4001 16.2623H82.4001C82.4001 21.8744 86.9496 26.4238 92.5616 26.4238V20.4238ZM96.2293 18.2316C95.5225 19.5432 94.1426 20.4238 92.5616 20.4238V26.4238C96.4362 26.4238 99.7995 24.2543 101.511 21.078L96.2293 18.2316ZM105 16.6548H98.8702V22.6548H105V16.6548ZM108 35.9159V19.6548H102V35.9159H108ZM106.757 32.9159H105V38.9159H106.757V32.9159ZM109.398 37.339C110.623 35.0655 113.019 33.5312 115.769 33.5312V27.5312C110.725 27.5312 106.346 30.3545 104.116 34.4928L109.398 37.339ZM115.769 33.5312C119.763 33.5312 123 36.7685 123 40.7619H129C129 33.4548 123.076 27.5312 115.769 27.5312V33.5312ZM123 40.7619C123 44.7554 119.763 47.9927 115.769 47.9927V53.9927C123.076 53.9927 129 48.0691 129 40.7619H123ZM115.769 47.9927C113.176 47.9927 110.898 46.6292 109.618 44.5655L104.519 47.7279C106.847 51.4819 111.014 53.9927 115.769 53.9927V47.9927ZM105 49.1467H107.069V43.1467H105V49.1467ZM108 56.0005V46.1467H102V56.0005H108ZM0 59.0005H105V53.0005H0V59.0005ZM-3 0.000488281V56.0005H3V0.000488281H-3Z" fill="#505050" mask="url(#path-1-inside-1_468_17965)"/>
</svg>
