<svg width="127" height="57" viewBox="0 0 127 57" fill="none" xmlns="http://www.w3.org/2000/svg">
<mask id="path-1-inside-1_468_17992" fill="white">
<path fill-rule="evenodd" clip-rule="evenodd" d="M126.6 56.7998H21.5996V44.307H27.9473C29.2101 46.3434 31.4657 47.6995 34.038 47.6995C37.9932 47.6995 41.1995 44.4932 41.1995 40.538C41.1995 36.5828 37.9932 33.3765 34.038 33.3765C31.3102 33.3765 28.9386 34.9015 27.7294 37.1455H21.5996V20.8843H19.8429C18.1155 24.0903 14.7274 26.2691 10.8304 26.2691C5.18008 26.2691 0.599609 21.6886 0.599609 16.0383C0.599609 10.3881 5.18008 5.80758 10.8304 5.80758C14.5049 5.80758 17.727 7.74476 19.531 10.6536H21.5996V0.799805H126.6V56.7998Z"/>
</mask>
<path fill-rule="evenodd" clip-rule="evenodd" d="M126.6 56.7998H21.5996V44.307H27.9473C29.2101 46.3434 31.4657 47.6995 34.038 47.6995C37.9932 47.6995 41.1995 44.4932 41.1995 40.538C41.1995 36.5828 37.9932 33.3765 34.038 33.3765C31.3102 33.3765 28.9386 34.9015 27.7294 37.1455H21.5996V20.8843H19.8429C18.1155 24.0903 14.7274 26.2691 10.8304 26.2691C5.18008 26.2691 0.599609 21.6886 0.599609 16.0383C0.599609 10.3881 5.18008 5.80758 10.8304 5.80758C14.5049 5.80758 17.727 7.74476 19.531 10.6536H21.5996V0.799805H126.6V56.7998Z" fill="white"/>
<path d="M21.5996 56.7998H18.5996V59.7998H21.5996V56.7998ZM126.6 56.7998V59.7998H129.6V56.7998H126.6ZM21.5996 44.307V41.307H18.5996V44.307H21.5996ZM27.9473 44.307L30.4969 42.726L29.617 41.307H27.9473V44.307ZM27.7294 37.1455V40.1455H29.5206L30.3703 38.5687L27.7294 37.1455ZM21.5996 37.1455H18.5996V40.1455H21.5996V37.1455ZM21.5996 20.8843H24.5996V17.8843H21.5996V20.8843ZM19.8429 20.8843V17.8843H18.0516L17.2019 19.4613L19.8429 20.8843ZM19.531 10.6536L16.9816 12.2348L17.8615 13.6536H19.531V10.6536ZM21.5996 10.6536V13.6536H24.5996V10.6536H21.5996ZM21.5996 0.799805V-2.2002H18.5996V0.799805H21.5996ZM126.6 0.799805H129.6V-2.2002H126.6V0.799805ZM21.5996 59.7998H126.6V53.7998H21.5996V59.7998ZM18.5996 44.307V56.7998H24.5996V44.307H18.5996ZM27.9473 41.307H21.5996V47.307H27.9473V41.307ZM34.038 44.6995C32.5466 44.6995 31.2355 43.9171 30.4969 42.726L25.3978 45.8881C27.1848 48.7697 30.3848 50.6995 34.038 50.6995V44.6995ZM38.1995 40.538C38.1995 42.8364 36.3363 44.6995 34.038 44.6995V50.6995C39.65 50.6995 44.1995 46.1501 44.1995 40.538H38.1995ZM34.038 36.3765C36.3363 36.3765 38.1995 38.2396 38.1995 40.538H44.1995C44.1995 34.9259 39.65 30.3765 34.038 30.3765V36.3765ZM30.3703 38.5687C31.0771 37.257 32.457 36.3765 34.038 36.3765V30.3765C30.1634 30.3765 26.8001 32.546 25.0884 35.7223L30.3703 38.5687ZM21.5996 40.1455H27.7294V34.1455H21.5996V40.1455ZM18.5996 20.8843V37.1455H24.5996V20.8843H18.5996ZM19.8429 23.8843H21.5996V17.8843H19.8429V23.8843ZM17.2019 19.4613C15.9769 21.7348 13.5805 23.2691 10.8304 23.2691V29.2691C15.8742 29.2691 20.2541 26.4457 22.4839 22.3074L17.2019 19.4613ZM10.8304 23.2691C6.83694 23.2691 3.59961 20.0318 3.59961 16.0383H-2.40039C-2.40039 23.3455 3.52323 29.2691 10.8304 29.2691V23.2691ZM3.59961 16.0383C3.59961 12.0449 6.83693 8.80758 10.8304 8.80758V2.80758C3.52322 2.80758 -2.40039 8.7312 -2.40039 16.0383H3.59961ZM10.8304 8.80758C13.424 8.80758 15.7017 10.1711 16.9816 12.2348L22.0805 9.07236C19.7523 5.3184 15.5858 2.80758 10.8304 2.80758V8.80758ZM21.5996 7.65357H19.531V13.6536H21.5996V7.65357ZM18.5996 0.799805V10.6536H24.5996V0.799805H18.5996ZM126.6 -2.2002H21.5996V3.7998H126.6V-2.2002ZM129.6 56.7998V0.799805H123.6V56.7998H129.6Z" fill="#505050" mask="url(#path-1-inside-1_468_17992)"/>
</svg>
