<svg width="117" height="56" viewBox="0 0 117 56" fill="none" xmlns="http://www.w3.org/2000/svg">
<mask id="path-1-inside-1_468_17953" fill="white">
<path fill-rule="evenodd" clip-rule="evenodd" d="M0 0H105V0.748923C99.3201 2.53291 95.2 7.8393 95.2 14.108C95.2 20.0873 98.9485 25.1912 104.224 27.1978C111.029 28.397 116.2 34.339 116.2 41.4886C116.2 48.3638 111.419 54.1223 105 55.6206V56H101.751L101.688 56.0001L101.625 56H0V0Z"/>
</mask>
<path fill-rule="evenodd" clip-rule="evenodd" d="M0 0H105V0.748923C99.3201 2.53291 95.2 7.8393 95.2 14.108C95.2 20.0873 98.9485 25.1912 104.224 27.1978C111.029 28.397 116.2 34.339 116.2 41.4886C116.2 48.3638 111.419 54.1223 105 55.6206V56H101.751L101.688 56.0001L101.625 56H0V0Z" fill="#D2D2D2"/>
<path d="M105 0H108V-3H105V0ZM0 0V-3H-3V0H0ZM105 0.748923L105.899 3.61107L108 2.95116V0.748923H105ZM104.224 27.1978L103.157 30.0018L103.423 30.1029L103.703 30.1523L104.224 27.1978ZM105 55.6206L104.318 52.6991L102 53.2402V55.6206H105ZM105 56V59H108V56H105ZM101.751 56L101.751 53L101.745 53L101.751 56ZM101.688 56.0001L101.682 59.0002L101.695 59.0001L101.688 56.0001ZM101.625 56L101.632 53H101.625V56ZM0 56H-3V59H0V56ZM105 -3H0V3H105V-3ZM108 0.748923V0H102V0.748923H108ZM98.2 14.108C98.2 9.18713 101.433 5.01362 105.899 3.61107L104.101 -2.11322C97.2067 0.0521894 92.2 6.49148 92.2 14.108H98.2ZM105.29 24.3938C101.141 22.8153 98.2 18.8013 98.2 14.108H92.2C92.2 21.3734 96.7564 27.5671 103.157 30.0018L105.29 24.3938ZM119.2 41.4886C119.2 32.8578 112.959 25.6907 104.744 24.2433L103.703 30.1523C109.1 31.1032 113.2 35.8201 113.2 41.4886H119.2ZM105.682 58.542C113.428 56.734 119.2 49.789 119.2 41.4886H113.2C113.2 46.9386 109.41 51.5106 104.318 52.6991L105.682 58.542ZM108 56V55.6206H102V56H108ZM101.751 59H105V53H101.751V59ZM101.695 59.0001L101.758 59L101.745 53L101.682 53.0001L101.695 59.0001ZM101.619 59L101.682 59.0001L101.695 53.0001L101.632 53L101.619 59ZM0 59H101.625V53H0V59ZM-3 0V56H3V0H-3Z" fill="#505050" mask="url(#path-1-inside-1_468_17953)"/>
</svg>
