<svg width="117" height="57" viewBox="0 0 117 57" fill="none" xmlns="http://www.w3.org/2000/svg">
<mask id="path-1-inside-1_468_18004" fill="white">
<path fill-rule="evenodd" clip-rule="evenodd" d="M116.6 56.8003H11.5996V56.0514C17.2795 54.2674 21.3996 48.961 21.3996 42.6923C21.3996 36.713 17.6511 31.6091 12.3759 29.6025C5.57013 28.4033 0.399658 22.4613 0.399658 15.3117C0.399658 8.43649 5.18082 2.67798 11.5996 1.17973V0.800293H14.8483L14.9112 0.800159L14.9741 0.800293H116.6V56.8003Z"/>
</mask>
<path fill-rule="evenodd" clip-rule="evenodd" d="M116.6 56.8003H11.5996V56.0514C17.2795 54.2674 21.3996 48.961 21.3996 42.6923C21.3996 36.713 17.6511 31.6091 12.3759 29.6025C5.57013 28.4033 0.399658 22.4613 0.399658 15.3117C0.399658 8.43649 5.18082 2.67798 11.5996 1.17973V0.800293H14.8483L14.9112 0.800159L14.9741 0.800293H116.6V56.8003Z" fill="#D2D2D2"/>
<path d="M11.5996 56.8003H8.59961V59.8003H11.5996V56.8003ZM116.6 56.8003V59.8003H119.6V56.8003H116.6ZM11.5996 56.0514L10.7007 53.1892L8.59961 53.8491V56.0514H11.5996ZM12.3759 29.6025L13.4424 26.7985L13.1766 26.6974L12.8964 26.648L12.3759 29.6025ZM11.5996 1.17973L12.2815 4.10119L14.5996 3.56011V1.17973H11.5996ZM11.5996 0.800293V-2.19971H8.59961V0.800293H11.5996ZM14.8483 0.800293L14.8483 3.8003L14.8546 3.80029L14.8483 0.800293ZM14.9112 0.800159L14.9176 -2.19986L14.9048 -2.19983L14.9112 0.800159ZM14.9741 0.800293L14.9677 3.80029H14.9741V0.800293ZM116.6 0.800293H119.6V-2.19971H116.6V0.800293ZM11.5996 59.8003H116.6V53.8003H11.5996V59.8003ZM8.59961 56.0514V56.8003H14.5996V56.0514H8.59961ZM18.3996 42.6923C18.3996 47.6132 15.1662 51.7867 10.7007 53.1892L12.4986 58.9135C19.3929 56.7481 24.3996 50.3088 24.3996 42.6923H18.3996ZM11.3093 32.4065C15.459 33.985 18.3996 37.999 18.3996 42.6923H24.3996C24.3996 35.4269 19.8432 29.2332 13.4424 26.7985L11.3093 32.4065ZM-2.60034 15.3117C-2.60034 23.9425 3.64053 31.1095 11.8553 32.557L12.8964 26.648C7.49973 25.6971 3.39966 20.9802 3.39966 15.3117H-2.60034ZM10.9177 -1.74174C3.17171 0.0663038 -2.60034 7.01131 -2.60034 15.3117H3.39966C3.39966 9.86168 7.18994 5.28966 12.2815 4.10119L10.9177 -1.74174ZM8.59961 0.800293V1.17973H14.5996V0.800293H8.59961ZM14.8483 -2.19971H11.5996V3.80029H14.8483V-2.19971ZM14.9048 -2.19983L14.8419 -2.1997L14.8546 3.80029L14.9176 3.80015L14.9048 -2.19983ZM14.9805 -2.1997L14.9176 -2.19983L14.9048 3.80015L14.9677 3.80029L14.9805 -2.1997ZM116.6 -2.19971H14.9741V3.80029H116.6V-2.19971ZM119.6 56.8003V0.800293H113.6V56.8003H119.6Z" fill="#505050" mask="url(#path-1-inside-1_468_18004)"/>
</svg>
